<svg width="207" height="57" viewBox="0 0 207 57" fill="none" xmlns="http://www.w3.org/2000/svg">
<path d="M195.676 7.04543C187.821 6.57631 182.661 12.3231 182.661 12.3231C173.985 1.18471 162.378 10.7984 162.378 10.7984L162.964 7.51456H153.585L147.138 40.4606H156.869L160.736 21.8195C160.736 21.8195 162.026 15.9588 168.125 15.4897C171.553 15.225 172.98 16.8535 173.57 18.3279C173.952 19.2762 174.026 20.3217 173.831 21.327L170.118 40.4606H179.967C179.967 40.4606 183.13 24.3997 184.185 20.5295C185.241 16.6625 190.401 15.4897 190.401 15.4897C198.373 14.4342 196.966 22.0541 196.966 22.0541L193.099 40.4606H202.947C202.947 40.4606 205.641 26.8626 206.814 19.943C207.987 13.0268 203.534 7.51456 195.676 7.04543Z" fill="white"/>
<path fill-rule="evenodd" clip-rule="evenodd" d="M146.903 26.5108H121.812C121.812 32.3715 127.555 33.1925 127.555 33.1925C135.648 34.0134 139.045 30.495 139.045 30.495L143.033 36.7109C143.033 36.7109 135.765 42.1025 126.734 41.047C117.707 39.9914 114.075 33.3098 114.075 33.3098C112.081 29.0876 110.322 17.9492 119.935 10.7984C129.67 3.55713 140.101 8.68735 140.101 8.68735C150.77 14.1996 146.903 26.5108 146.903 26.5108ZM130.487 14.4341C130.487 14.4341 124.392 14.6687 122.516 20.9986H138.576C138.576 20.9986 139.749 14.3169 130.487 14.4341Z" fill="white"/>
<path d="M102.233 28.7358L104.927 15.8415H113.019L114.544 8.21821H106.334L107.976 0.12915H98.5968L96.8376 8.21821H91.5633L90.1559 15.8415H95.1957C95.1957 15.8415 94.2272 21.3705 93.0846 26.1589C91.9151 31.0814 92.3843 33.6616 92.3843 33.6616C92.3843 33.6616 93.0846 39.4084 99.5351 40.6951C105.982 41.9852 110.908 39.1738 110.908 39.1738L109.383 32.2542C100.356 36.0072 102.233 28.7358 102.233 28.7358Z" fill="white"/>
<path fill-rule="evenodd" clip-rule="evenodd" d="M43.059 10.45C43.8297 12.6683 44.4296 14.957 44.4296 17.4802C44.4296 20.4658 43.7661 23.8938 42.553 26.7454C41.34 29.597 39.4836 32.3816 37.2754 34.5999C35.0705 36.8216 32.5004 38.2826 29.4209 39.643C26.3414 41.0001 22.8096 41.2917 19.0767 41.2917C16.215 41.2917 13.6113 40.8415 11.2657 39.9413C8.92009 39.0432 6.91625 37.79 5.24415 36.1815C3.57541 34.5753 2.2842 32.691 1.37052 30.5286C0.455723 28.3639 0 26.0216 0 23.495C0 20.5094 0.422215 17.5975 1.63524 14.7458C2.84603 11.8954 4.55499 9.35984 6.76211 7.13931C8.967 4.92102 11.3662 2.94399 14.6903 1.77118C17.8636 0.651976 20.8627 -0.105327 25.0848 0.0119548C27.9431 0.0923764 30.5602 0.17615 32.9058 1.07754C35.2481 1.97558 37.5133 3.18525 39.182 4.79368C40.8508 6.40211 42.2012 7.98374 43.059 10.45ZM35.0437 18.0967C35.0437 16.6045 34.8147 15.2362 34.3568 13.9919C33.8966 12.7498 33.2174 11.6686 32.3194 10.7482C31.4214 9.83008 30.3033 9.12193 28.9652 8.62376C27.6282 8.12783 25.7483 7.74917 24.0326 7.74917C21.8344 7.74917 19.6195 8.21495 17.8234 9.1331C16.0273 10.0512 14.5005 11.2274 13.2427 12.6616C11.9828 14.0991 11.2255 15.8416 10.5252 17.6377C9.82818 19.4382 9.47969 21.1997 9.47969 22.922C9.47746 24.4143 9.70643 25.7815 10.1666 27.0235C10.6246 28.2678 11.3037 29.3502 12.204 30.2706C13.102 31.1887 14.6903 32.1839 16.0273 32.6799C17.3655 33.178 18.8924 33.4271 20.608 33.4271C22.8062 33.4271 24.9273 32.968 26.7234 32.0499C28.5217 31.1317 30.0497 29.9545 31.3074 28.518C32.564 27.0839 33.3079 25.1805 34.0049 23.3811C34.7052 21.5817 35.0437 19.8191 35.0437 18.0967Z" fill="white"/>
<path fill-rule="evenodd" clip-rule="evenodd" d="M92.8433 50.406C93.3292 51.7598 94.2139 55.1476 91.3287 56.1729C87.693 57.463 85.6992 53.4755 85.6992 53.4755C85.6992 53.4755 82.5326 47.2629 81.4771 44.9173C80.4249 42.5716 79.3694 40.9297 77.962 39.8742C76.5546 38.822 74.8892 39.643 74.8892 39.643C71.8098 41.0001 68.2779 41.2916 64.5417 41.2916C61.68 41.2916 59.0775 40.8415 56.7341 39.9412C54.3884 39.0432 52.3812 37.7899 50.7125 36.1815C49.0438 34.5753 47.7525 32.691 46.8389 30.5285C45.9241 28.3638 45.4683 26.0216 45.4683 23.495C45.4683 20.5093 45.8872 17.5974 47.1002 14.7458C48.3133 11.8953 50.0222 9.35978 52.2271 7.13925C54.432 4.92096 56.8312 2.94393 60.1553 1.77112C63.3286 0.651915 66.331 -0.105388 70.5498 0.0118938C73.4115 0.0923153 76.0285 0.176089 78.3708 1.07748C80.7164 1.97552 82.9816 3.18519 84.6504 4.79362C86.3191 6.40205 87.6695 7.98368 88.524 10.4499C89.2947 12.6682 89.8945 14.9569 89.8945 17.4801C89.8945 20.4658 89.2311 23.8937 88.0214 26.7454C86.8084 29.597 84.8648 32.2978 82.7437 34.5999C82.1238 35.2734 82.1841 36.3289 82.3483 37.1097C82.469 37.6827 82.7303 38.2155 83.1056 38.6645C84.3019 40.092 87.5188 43.9221 88.7485 45.1518C89.9448 46.3515 91.6538 48.563 92.3273 49.4544C92.5451 49.7459 92.7193 50.0642 92.8433 50.406ZM80.512 18.0967C80.512 16.6044 80.2819 15.2361 79.8217 13.9918C79.3638 12.7498 78.6858 11.6685 77.7878 10.7482C76.8875 9.83002 75.7694 9.12187 74.4335 8.6237C73.0965 8.12777 71.2166 7.74911 69.501 7.74911C67.3028 7.74911 65.0879 8.21489 63.2884 9.13303C61.4923 10.0512 59.9654 11.2273 58.7077 12.6615C57.4512 14.0991 56.6905 15.8415 55.9935 17.6376C55.2943 19.4382 54.9447 21.1996 54.9447 22.922C54.9447 24.4142 55.1748 25.7814 55.635 27.0235C56.0929 28.2678 56.7709 29.3501 57.669 30.2705C58.567 31.1886 60.1587 32.1839 61.4957 32.6798C62.8316 33.178 64.3585 33.427 66.0764 33.427C68.2712 33.427 70.3957 32.968 72.1918 32.0498C73.9878 31.1317 75.5147 29.9544 76.7724 28.518C78.0324 27.0838 78.7729 25.1805 79.4733 23.3811C80.1702 21.5816 80.512 19.819 80.512 18.0967ZM90.7423 51.8335C90.2196 50.9254 86.7548 47.8493 86.7548 47.8493C86.7548 47.8493 87.3814 52.0145 89.2177 53.3582C90.9769 54.6483 91.2114 52.6545 90.7423 51.8335Z" fill="white"/>
</svg>
